<svg width="189" height="45" viewBox="0 0 189 45" fill="none" xmlns="http://www.w3.org/2000/svg">
<path d="M91.5601 30.1596V30.0544C91.5601 21.8689 98.2293 15.1101 107.385 15.1101C116.541 15.1101 123.157 21.8172 123.157 29.95V30.0553C123.157 38.2408 116.436 44.9995 107.279 44.9995C98.1803 44.9995 91.5601 38.3489 91.5601 30.1596ZM101.299 29.9491V30.0544C101.266 30.8784 101.397 31.7008 101.687 32.4733C101.976 33.2458 102.417 33.9529 102.984 34.5531C103.551 35.1532 104.232 35.6343 104.988 35.9682C105.744 36.3021 106.559 36.482 107.385 36.4973C111.037 36.4973 113.419 33.593 113.419 30.1606V30.0553C113.456 29.2233 113.326 28.3923 113.035 27.6117C112.744 26.831 112.3 26.1165 111.727 25.5107C111.154 24.9048 110.465 24.4199 109.701 24.0848C108.937 23.7497 108.113 23.5711 107.279 23.5597C103.632 23.5588 101.303 26.4123 101.303 29.9491H101.299ZM34.0289 30.1596V30.0544C34.0289 21.8689 40.6981 15.1101 49.8541 15.1101C59.0101 15.1101 65.6303 21.8162 65.6303 29.9491V30.0544C65.6303 38.2398 58.9084 44.9986 49.7524 44.9986C40.6482 44.9995 34.0327 38.3489 34.0327 30.1596H34.0289ZM43.767 29.9491V30.0544C43.7335 30.8785 43.8653 31.7009 44.1547 32.4735C44.4441 33.2461 44.8853 33.9532 45.4523 34.5534C46.0193 35.1536 46.7007 35.6347 47.4566 35.9685C48.2125 36.3023 49.0276 36.4821 49.8541 36.4973C53.5061 36.4973 55.8875 33.593 55.8875 30.1606V30.0553C55.9249 29.2233 55.7944 28.3923 55.5038 27.6117C55.2132 26.831 54.7683 26.1165 54.1957 25.5107C53.623 24.9048 52.9342 24.4199 52.1701 24.0848C51.406 23.7497 50.5822 23.5711 49.7477 23.5597C46.1003 23.5588 43.7708 26.4123 43.7708 29.9491H43.767ZM65.4673 40.6695L69.2249 34.6495C72.1132 36.6413 75.5078 37.7763 79.0158 37.9231C80.7622 37.9231 81.6091 37.3958 81.6091 36.392V36.2868C81.6091 35.0715 79.9681 34.6495 76.951 33.8045C71.2878 32.3787 66.7889 30.4209 66.7889 24.7214V24.6152C66.7889 18.5426 71.7108 15.1628 78.2745 15.1628C82.4424 15.1542 86.5301 16.3065 90.0774 18.49L86.6364 24.8267C84.0694 23.2675 81.1658 22.3439 78.168 22.133C76.6326 22.133 75.8385 22.7138 75.8385 23.5588V23.6641C75.8385 24.7731 77.5341 25.3013 80.4966 26.2018C86.1597 27.7338 90.6586 29.7404 90.6586 35.2848V35.3901C90.6586 41.6751 85.9487 44.9488 78.9621 44.9488C74.1196 45.0077 69.3872 43.507 65.4673 40.6695ZM172.328 35.4409V23.7703H168.937V15.7427H172.328V8.50553H182.331V15.7427H189V23.7703H182.331V33.4868C182.331 35.5461 183.23 36.3385 185.082 36.3385C186.408 36.3118 187.711 35.987 188.894 35.3882V43.2043C186.744 44.3452 184.341 44.9271 181.907 44.8961C175.825 44.8943 172.332 42.2532 172.332 35.4409H172.328ZM156.978 44.3125V15.7399H166.981V44.3125H156.978ZM143.641 44.3125V28.84C143.641 25.6717 142.053 23.9808 139.566 23.9808C137.079 23.9808 135.332 25.6726 135.332 28.84V44.3134H125.283V15.7408H135.339V19.7541C137.191 17.3781 139.838 15.1064 143.911 15.1064C150.051 15.1064 153.65 19.0671 153.65 25.6162V44.3106L143.641 44.3125ZM0 44.3134V7.3457H19.0006C23.6587 7.3457 26.9396 8.50741 29.1099 10.6203C29.8895 11.4137 30.502 12.3549 30.9111 13.3884C31.3203 14.4218 31.5178 15.5266 31.4921 16.6374V16.7427C31.4921 21.0201 29.1108 23.555 25.7762 24.9808C30.2751 26.4593 33.1331 28.9942 33.1331 34.0113V34.1194C33.1331 40.5106 27.9993 44.3115 19.108 44.3115L0 44.3134ZM10.0028 36.0753H17.9418C21.1172 36.0753 22.8636 34.8609 22.8636 32.6917V32.5864C22.8636 30.5271 21.2755 29.2592 17.8354 29.2592H10.0028V36.0753ZM10.0028 22.0803H16.4601C19.6355 22.0803 21.3819 21.0239 21.3819 18.8593V18.7531C21.3819 16.6412 19.8474 15.5848 16.7248 15.5848H10.0028V22.0803Z" fill="#011A33"/>
<path d="M156.759 2.69861C156.091 3.69708 155.734 4.87092 155.734 6.07168C155.735 7.68142 156.376 9.22515 157.516 10.3634C158.657 11.5017 160.204 12.1412 161.818 12.1415C163.021 12.1417 164.198 11.7858 165.198 11.1188C166.199 10.4518 166.979 9.50367 167.44 8.39435C167.9 7.28503 168.021 6.06433 167.786 4.88663C167.551 3.70894 166.972 2.62715 166.121 1.77808C165.27 0.929017 164.186 0.350815 163.005 0.116604C161.825 -0.117606 160.602 0.00269374 159.49 0.46229C158.378 0.921887 157.428 1.70013 156.759 2.69861Z" fill="#007DFC"/>
</svg>
